<?xml version="1.0" encoding="UTF-8"?>
<svg width="154px" height="192px" viewBox="0 0 154 192" version="1.1" xmlns="http://www.w3.org/2000/svg" xmlns:xlink="http://www.w3.org/1999/xlink">
    <!-- Generator: Sketch 41.1 (35376) - http://www.bohemiancoding.com/sketch -->
    <title>B_vector_radio_rectangle</title>
    <desc>Created with Sketch.</desc>
    <defs>
        <linearGradient x1="11.75866%" y1="5.3180127%" x2="65.9608493%" y2="98.4084685%" id="linearGradient-1">
            <stop stop-color="#07E9C8" offset="0%"></stop>
            <stop stop-color="#24B8EE" offset="50.9825415%"></stop>
            <stop stop-color="#725AF8" offset="100%"></stop>
        </linearGradient>
    </defs>
    <g id="Page-1" stroke="none" stroke-width="1" fill="none" fill-rule="evenodd">
        <g id="Desktop-HD-Copy-4" transform="translate(-1099.000000, -1858.000000)" stroke="url(#linearGradient-1)">
            <path d="M1177.95202,1937.05875 C1185.03304,1932.99179 1190.99665,1928.88924 1195.83673,1924.74997 C1200.6757,1920.6146 1204.21649,1916.68614 1206.46188,1912.96737 C1208.70338,1909.25304 1209.54491,1906.27124 1208.98593,1904.02529 C1208.42361,1902.20428 1206.88237,1900.83713 1204.35721,1899.92218 C1201.83316,1899.01278 1198.57214,1898.66071 1194.57359,1898.8704 C1190.57672,1899.08064 1185.98081,1899.88936 1180.79255,1901.28988 C1175.6015,1902.69429 1169.99052,1904.79785 1163.96128,1907.60223 C1161.9951,1913.63537 1160.31148,1919.94716 1158.91096,1926.53761 C1157.50821,1933.13307 1155.82459,1940.14512 1153.86174,1947.57822 C1162.83664,1944.63313 1170.86877,1941.12849 1177.95202,1937.05875 Z M1142.3945,1999.44139 C1141.202,2004.84379 1140.11407,2010.34965 1139.13348,2015.9584 C1146.42475,2014.13683 1153.08918,2011.92704 1159.12231,2009.33068 C1165.15156,2006.73711 1170.27308,2004.00226 1174.48075,2001.12502 C1178.68899,1998.25223 1181.80817,1995.37499 1183.84388,1992.49886 C1185.87513,1989.62496 1186.6121,1986.99523 1186.05312,1984.60856 C1185.34896,1983.2086 1183.94844,1981.94657 1181.84488,1980.82193 C1179.74077,1979.70063 1176.93305,1978.92806 1173.42897,1978.50701 C1169.921,1978.08652 1165.8546,1978.1922 1161.22587,1978.82238 C1156.59715,1979.45423 1151.47508,1980.68344 1145.86577,1982.505 C1144.74224,1988.39575 1143.58478,1994.04399 1142.3945,1999.44139 Z M1222.76809,1974.29934 C1226.20264,1979.34855 1228.48141,1984.53959 1229.60605,1989.86913 C1230.30576,1996.18037 1229.46422,2001.54606 1227.08089,2005.9651 C1224.69478,2010.38246 1220.83806,2014.69526 1215.50853,2018.90405 C1211.85983,2022.13226 1207.54648,2025.2164 1202.56957,2028.1615 C1197.58821,2031.10715 1192.32931,2033.77303 1186.78953,2036.15747 C1181.24585,2038.54414 1175.67103,2040.68052 1170.06172,2042.57439 C1164.45074,2044.46771 1159.12231,2046.04566 1154.07199,2047.30879 C1151.40555,2048.0085 1149.12734,2048.4974 1147.23347,2048.78051 C1145.34015,2049.06028 1143.51581,2049.12925 1141.76321,2048.99075 C1140.00839,2048.85003 1138.29195,2048.4974 1136.60832,2047.93897 C1134.92636,2047.37665 1132.95963,2046.4667 1130.71757,2045.20356 C1126.50934,2043.37922 1122.82783,2041.45309 1119.67193,2039.41849 C1116.51548,2037.38668 1112.83397,2034.75696 1108.62518,2031.52875 C1107.08394,2029.84512 1105.71624,2028.40845 1104.52263,2027.21428 C1103.33346,2026.02512 1102.38625,2024.76198 1101.68265,2023.4271 C1100.98184,2022.0961 1100.49238,2020.58768 1100.20983,2018.90405 C1099.93006,2017.22098 1099.93006,2015.0479 1100.20983,2012.38146 C1100.63087,2003.68633 1101.40344,1993.83375 1102.52475,1982.82093 C1103.64772,1971.81033 1104.8747,1960.3798 1106.2057,1948.52544 C1107.54059,1936.67386 1108.73086,1924.74997 1109.78264,1912.75712 C1110.83498,1900.76427 1111.49908,1889.36989 1111.78219,1878.56731 C1117.11062,1875.62222 1123.28114,1872.88681 1130.29764,1870.36165 C1137.30914,1867.83648 1144.63711,1865.6634 1152.2838,1863.83905 C1159.9277,1862.0186 1167.67505,1860.68371 1175.53253,1859.84217 C1183.38612,1859.00064 1190.85593,1858.78928 1197.94085,1859.21033 C1205.02187,1859.63082 1211.51109,1860.78828 1217.40184,1862.68159 C1223.29426,1864.57546 1228.13267,1867.34702 1231.91986,1870.99349 C1236.82835,1875.90365 1240.9309,1881.16422 1244.22863,1886.77298 C1247.52303,1892.38451 1249.94251,1898.90711 1251.48709,1906.34021 C1252.1879,1910.4105 1252.15175,1914.33507 1251.38141,1918.12226 C1250.60884,1921.90889 1249.31066,1925.55869 1247.48965,1929.06333 C1245.66586,1932.57075 1243.41991,1935.83177 1240.75737,1938.84639 C1238.09038,1941.8649 1235.21425,1944.70599 1232.1301,1947.36798 C1228.76452,1949.89314 1225.32496,1952.4539 1221.82088,1955.04803 C1218.3129,1957.64494 1214.17364,1960.1334 1209.40753,1962.51673 C1214.87835,1965.32444 1219.32853,1969.24901 1222.76809,1974.29934 Z" id="B_vector_radio_rectangle"></path>
        </g>
    </g>
</svg>