<?xml version="1.0" encoding="utf-8"?>
<!-- Generator: Adobe Illustrator 21.0.0, SVG Export Plug-In . SVG Version: 6.00 Build 0)  -->
<svg version="1.1" id="Calque_1" xmlns="http://www.w3.org/2000/svg" xmlns:xlink="http://www.w3.org/1999/xlink" x="0px" y="0px"
	 viewBox="0 0 142 33" style="enable-background:new 0 0 142 33;" xml:space="preserve">
<style type="text/css">
	.st0{enable-background:new    ;}
	.st1{fill:#FFFFFF;}
</style>
<title>ciprian ciobanasu vi</title>
<desc>Created with Sketch.</desc>
<g id="Page-1">
	<g id="Desktop-HD-Copy-4" transform="translate(-134.000000, -32.000000)">
		<g class="st0">
			<path class="st1" d="M142.4,39.8l-2.4,0.1c0-0.9-0.5-1.4-1.3-1.4c-1.1,0-1.6,0.9-1.6,2.6c0,0.6,0.1,1.2,0.4,1.6
				c0.3,0.5,0.7,0.7,1.2,0.7c0.8,0,1.3-0.4,1.5-1.3l2.3,0.1c-0.2,1-0.6,1.7-1.2,2.3c-0.6,0.6-1.4,0.8-2.5,0.8c-1.3,0-2.3-0.4-3-1.2
				c-0.7-0.8-1-1.8-1-3.1c0-1.3,0.4-2.4,1.1-3.2c0.7-0.8,1.7-1.2,2.9-1.2c1.2,0,2.1,0.3,2.7,0.9S142.3,38.9,142.4,39.8z"/>
			<path class="st1" d="M143.8,34.2c0-0.4,0.1-0.7,0.4-0.9s0.6-0.4,1-0.4c0.4,0,0.7,0.1,0.9,0.4c0.3,0.3,0.4,0.6,0.4,0.9
				c0,0.4-0.1,0.7-0.4,0.9c-0.3,0.3-0.6,0.4-0.9,0.4c-0.4,0-0.7-0.1-1-0.4C143.9,34.9,143.8,34.6,143.8,34.2z M144,45v-8.2h2.3V45
				H144z"/>
			<path class="st1" d="M148.6,48.6V36.8h2.2v1.2h0c0.6-0.9,1.5-1.4,2.7-1.4c1.1,0,2,0.4,2.8,1.3c0.7,0.9,1.1,1.9,1.1,3.1
				c0,1.2-0.3,2.2-1,3.1c-0.7,0.8-1.6,1.3-2.8,1.3c-0.5,0-1-0.1-1.4-0.3s-0.8-0.5-1.2-1h0v4.7H148.6z M154.9,40.8
				c0-0.7-0.2-1.3-0.6-1.7c-0.4-0.5-0.9-0.7-1.5-0.7c-0.6,0-1.1,0.2-1.5,0.7c-0.4,0.5-0.5,1.1-0.5,1.8c0,0.7,0.2,1.2,0.5,1.7
				c0.4,0.5,0.9,0.7,1.6,0.7c0.6,0,1.1-0.2,1.5-0.7C154.8,42.1,154.9,41.5,154.9,40.8z"/>
			<path class="st1" d="M159.1,45v-8.2h2.2v1.6h0c0.4-1.2,1.2-1.8,2.4-1.8h0.3v2.2h-0.5c-0.6,0-1.1,0.2-1.5,0.6
				c-0.4,0.4-0.6,0.9-0.6,1.6v4H159.1z"/>
			<path class="st1" d="M165.1,34.2c0-0.4,0.1-0.7,0.4-0.9s0.6-0.4,1-0.4c0.4,0,0.7,0.1,0.9,0.4c0.3,0.3,0.4,0.6,0.4,0.9
				c0,0.4-0.1,0.7-0.4,0.9c-0.3,0.3-0.6,0.4-0.9,0.4c-0.4,0-0.7-0.1-1-0.4C165.3,34.9,165.1,34.6,165.1,34.2z M165.3,45v-8.2h2.3V45
				H165.3z"/>
			<path class="st1" d="M175.2,45v-1.1h0c-0.7,0.9-1.6,1.3-2.8,1.3c-0.8,0-1.4-0.2-2-0.6c-0.6-0.4-0.9-1-0.9-1.9c0-0.2,0-0.4,0-0.6
				c0-0.2,0.1-0.4,0.3-0.6s0.3-0.4,0.6-0.6c0.2-0.2,0.6-0.3,1-0.5c0.5-0.1,1-0.2,1.6-0.3l2.1-0.1v-0.4c0-0.5-0.1-0.8-0.4-1.1
				c-0.3-0.2-0.7-0.4-1.2-0.4c-0.5,0-0.8,0.1-1.1,0.3s-0.4,0.5-0.4,0.9h-2.2c0.1-0.8,0.4-1.4,1-2s1.6-0.9,2.9-0.9
				c1.1,0,2,0.2,2.7,0.7s1,1.1,1,2V44c0,0.3,0,0.7,0.1,1H175.2z M175.1,42.2v-0.7l-1.9,0.2c-0.5,0-0.9,0.1-1.1,0.3
				c-0.2,0.2-0.3,0.4-0.3,0.7c0,0.6,0.5,0.9,1.4,0.9c0.4,0,0.9-0.1,1.3-0.4C174.9,43,175.1,42.6,175.1,42.2z"/>
			<path class="st1" d="M184.8,45v-5c0-0.5-0.1-0.9-0.4-1.2s-0.6-0.4-1-0.4c-0.5,0-0.8,0.2-1.1,0.5s-0.4,0.8-0.4,1.4V45h-2.3v-8.2
				h2.2v1.1h0c0.6-0.9,1.4-1.3,2.4-1.3c0.9,0,1.7,0.3,2.2,0.8c0.5,0.5,0.7,1.2,0.7,2.1V45H184.8z"/>
			<path class="st1" d="M201.1,39.8l-2.4,0.1c0-0.9-0.5-1.4-1.3-1.4c-1.1,0-1.6,0.9-1.6,2.6c0,0.6,0.1,1.2,0.4,1.6
				c0.3,0.5,0.7,0.7,1.2,0.7c0.8,0,1.3-0.4,1.5-1.3l2.3,0.1c-0.2,1-0.6,1.7-1.2,2.3c-0.6,0.6-1.4,0.8-2.5,0.8c-1.3,0-2.3-0.4-3-1.2
				c-0.7-0.8-1-1.8-1-3.1c0-1.3,0.4-2.4,1.1-3.2c0.7-0.8,1.7-1.2,2.9-1.2c1.2,0,2.1,0.3,2.7,0.9S201,38.9,201.1,39.8z"/>
			<path class="st1" d="M202.4,34.2c0-0.4,0.1-0.7,0.4-0.9s0.6-0.4,1-0.4c0.4,0,0.7,0.1,0.9,0.4c0.3,0.3,0.4,0.6,0.4,0.9
				c0,0.4-0.1,0.7-0.4,0.9c-0.3,0.3-0.6,0.4-0.9,0.4c-0.4,0-0.7-0.1-1-0.4C202.6,34.9,202.4,34.6,202.4,34.2z M202.6,45v-8.2h2.3V45
				H202.6z"/>
			<path class="st1" d="M213.9,37.7c0.8,0.8,1.2,1.8,1.2,3.2c0,1.3-0.4,2.4-1.2,3.2s-1.8,1.2-3,1.2s-2.3-0.4-3-1.2s-1.2-1.8-1.2-3.2
				c0-1.3,0.4-2.4,1.2-3.2c0.8-0.8,1.8-1.2,3-1.2S213.2,36.9,213.9,37.7z M212.2,42.7c0.3-0.5,0.5-1.1,0.5-1.8
				c0-0.7-0.2-1.3-0.5-1.8c-0.3-0.5-0.8-0.7-1.3-0.7s-1,0.2-1.3,0.7s-0.5,1.1-0.5,1.8c0,0.7,0.2,1.3,0.5,1.8
				c0.3,0.5,0.8,0.7,1.3,0.7S211.9,43.1,212.2,42.7z"/>
			<path class="st1" d="M217,45V33h2.3v4.9h0c0.4-0.5,0.8-0.8,1.2-1c0.4-0.2,0.9-0.3,1.4-0.3c1.1,0,2.1,0.4,2.8,1.3s1,1.9,1,3.1
				c0,1.2-0.4,2.2-1.1,3.1c-0.7,0.9-1.6,1.3-2.8,1.3c-1.2,0-2.1-0.5-2.7-1.4h0V45H217z M223.4,40.9c0-0.7-0.2-1.2-0.5-1.7
				s-0.9-0.7-1.5-0.7c-0.7,0-1.2,0.2-1.6,0.7c-0.4,0.5-0.5,1-0.5,1.7c0,0.7,0.2,1.3,0.5,1.8c0.4,0.5,0.9,0.7,1.5,0.7
				c0.7,0,1.2-0.2,1.5-0.7S223.4,41.6,223.4,40.9z"/>
			<path class="st1" d="M232.9,45v-1.1h0c-0.7,0.9-1.6,1.3-2.8,1.3c-0.8,0-1.4-0.2-2-0.6c-0.6-0.4-0.9-1-0.9-1.9c0-0.2,0-0.4,0-0.6
				c0-0.2,0.1-0.4,0.3-0.6s0.3-0.4,0.6-0.6c0.2-0.2,0.6-0.3,1-0.5s1-0.2,1.6-0.3l2.1-0.1v-0.4c0-0.5-0.1-0.8-0.4-1.1
				c-0.3-0.2-0.7-0.4-1.2-0.4c-0.5,0-0.8,0.1-1.1,0.3s-0.4,0.5-0.4,0.9h-2.2c0.1-0.8,0.4-1.4,1-2c0.6-0.6,1.6-0.9,2.9-0.9
				c1.1,0,2,0.2,2.7,0.7s1,1.1,1,2V44c0,0.3,0,0.7,0.1,1H232.9z M232.8,42.2v-0.7l-1.9,0.2c-0.5,0-0.9,0.1-1.1,0.3
				c-0.2,0.2-0.3,0.4-0.3,0.7c0,0.6,0.5,0.9,1.4,0.9c0.4,0,0.9-0.1,1.3-0.4C232.6,43,232.8,42.6,232.8,42.2z"/>
			<path class="st1" d="M242.6,45v-5c0-0.5-0.1-0.9-0.4-1.2s-0.6-0.4-1-0.4c-0.5,0-0.8,0.2-1.1,0.5c-0.3,0.4-0.4,0.8-0.4,1.4V45
				h-2.3v-8.2h2.2v1.1h0c0.6-0.9,1.4-1.3,2.4-1.3c0.9,0,1.7,0.3,2.2,0.8c0.5,0.5,0.7,1.2,0.7,2.1V45H242.6z"/>
			<path class="st1" d="M252.5,45v-1.1h0c-0.7,0.9-1.6,1.3-2.8,1.3c-0.8,0-1.4-0.2-2-0.6c-0.6-0.4-0.9-1-0.9-1.9c0-0.2,0-0.4,0-0.6
				c0-0.2,0.1-0.4,0.3-0.6s0.3-0.4,0.6-0.6c0.2-0.2,0.6-0.3,1-0.5s1-0.2,1.6-0.3l2.1-0.1v-0.4c0-0.5-0.1-0.8-0.4-1.1
				c-0.3-0.2-0.7-0.4-1.2-0.4c-0.5,0-0.8,0.1-1.1,0.3s-0.4,0.5-0.4,0.9H247c0.1-0.8,0.4-1.4,1-2c0.6-0.6,1.6-0.9,2.9-0.9
				c1.1,0,2,0.2,2.7,0.7s1,1.1,1,2V44c0,0.3,0,0.7,0.1,1H252.5z M252.4,42.2v-0.7l-1.9,0.2c-0.5,0-0.9,0.1-1.1,0.3
				c-0.2,0.2-0.3,0.4-0.3,0.7c0,0.6,0.5,0.9,1.4,0.9c0.4,0,0.9-0.1,1.3-0.4C252.2,43,252.4,42.6,252.4,42.2z"/>
			<path class="st1" d="M263.7,39.3l-2.3,0c0-0.4-0.2-0.6-0.4-0.8c-0.2-0.2-0.6-0.3-1-0.3c-0.3,0-0.6,0.1-0.9,0.2s-0.4,0.3-0.4,0.5
				c0,0.2,0.1,0.4,0.4,0.5c0.3,0.1,0.6,0.2,1,0.3c0.4,0.1,0.8,0.2,1.2,0.2s0.9,0.2,1.2,0.4s0.7,0.4,0.9,0.8s0.4,0.8,0.4,1.4
				c0,0.2,0,0.3-0.1,0.5s-0.1,0.4-0.3,0.7c-0.2,0.3-0.4,0.5-0.6,0.7c-0.3,0.2-0.6,0.4-1.1,0.5s-1,0.2-1.7,0.2c-0.4,0-0.7,0-1-0.1
				c-0.3-0.1-0.7-0.2-1.1-0.4c-0.4-0.2-0.7-0.5-1-0.9c-0.3-0.4-0.4-0.9-0.5-1.4h2.3c0,0.4,0.2,0.7,0.4,0.8s0.6,0.3,1,0.3
				c0.4,0,0.7-0.1,1-0.2c0.3-0.1,0.4-0.4,0.4-0.7c0-0.2-0.1-0.4-0.4-0.5c-0.2-0.1-0.5-0.2-0.9-0.3s-0.8-0.1-1.2-0.2
				c-0.4-0.1-0.8-0.2-1.2-0.4c-0.4-0.2-0.7-0.4-0.9-0.8c-0.2-0.4-0.4-0.8-0.4-1.3c0-0.7,0.3-1.3,0.9-1.9c0.6-0.5,1.4-0.8,2.6-0.8
				c1.1,0,1.9,0.2,2.6,0.7C263.3,37.7,263.6,38.4,263.7,39.3z"/>
			<path class="st1" d="M271.1,45v-1.1h0c-0.6,0.9-1.4,1.3-2.4,1.3c-0.9,0-1.7-0.3-2.2-0.8s-0.7-1.2-0.7-2.1v-5.6h2.3v5
				c0,0.5,0.1,0.9,0.4,1.2c0.3,0.3,0.6,0.4,1,0.4c0.5,0,0.8-0.2,1.1-0.5c0.3-0.4,0.4-0.8,0.4-1.4v-4.7h2.3V45H271.1z"/>
		</g>
		<g>
		</g>
		<g class="st0">
			<path class="st1" d="M134.9,54.4c0.3-0.5,0.6-0.9,0.9-1.1c0.3-0.2,0.6-0.3,0.9-0.3c0.1,0,0.3,0,0.4,0c0.1,0,0.3,0.1,0.4,0.1
				c0.1,0,0.3,0.1,0.5,0.1c0.2,0,0.3,0,0.6,0c0.2,0,0.4,0,0.6-0.1c0.2-0.1,0.3-0.1,0.4-0.2l0.2,0.3c-0.3,0.4-0.7,0.8-1,1.2
				c-0.3,0.4-0.7,0.8-0.9,1.3s-0.5,0.9-0.7,1.4c-0.2,0.5-0.3,1-0.3,1.5c0,0.6,0.1,1,0.4,1.3c0.2,0.3,0.7,0.5,1.2,0.5
				c0.4,0,0.7-0.1,1-0.3c0.3-0.2,0.6-0.4,0.9-0.7s0.5-0.6,0.7-0.9s0.4-0.7,0.6-1c0.1-0.3,0.3-0.7,0.3-1c0.1-0.3,0.1-0.6,0.1-0.8
				c0-0.2,0-0.4,0-0.6c0-0.2-0.1-0.3-0.2-0.5c-0.2-0.3-0.4-0.5-0.5-0.6c-0.1-0.2-0.2-0.3-0.2-0.6c0-0.2,0.1-0.3,0.2-0.4
				c0.1-0.1,0.3-0.1,0.4-0.1c0.2,0,0.4,0.2,0.6,0.5c0.2,0.3,0.3,0.8,0.3,1.6c0,0.4-0.1,0.8-0.2,1.2c-0.1,0.4-0.2,0.9-0.4,1.3
				s-0.4,0.9-0.7,1.3s-0.6,0.8-0.9,1.1c-0.3,0.3-0.7,0.6-1.1,0.8c-0.4,0.2-0.8,0.3-1.3,0.3c-0.8,0-1.4-0.2-1.9-0.7
				c-0.5-0.5-0.7-1.1-0.7-1.9c0-0.3,0-0.6,0.1-1c0.1-0.3,0.3-0.7,0.5-1.1c0.3-0.4,0.6-0.8,1.1-1.3c0.5-0.5,1-1,1.8-1.6l0,0
				c-0.1,0-0.1,0.1-0.2,0.1c-0.1,0-0.1,0.1-0.2,0.1c-0.2,0.1-0.4,0.2-0.6,0.2s-0.4,0.1-0.6,0.1c-0.2,0-0.4,0-0.7-0.1
				s-0.5-0.1-0.6-0.1c-0.1,0-0.2,0-0.4,0.1s-0.3,0.2-0.5,0.5L134.9,54.4z"/>
			<path class="st1" d="M145.4,58.6c-0.1,0.3-0.2,0.5-0.2,0.8s-0.1,0.5-0.1,0.6c0,0.1,0,0.3,0.1,0.3c0,0.1,0.1,0.1,0.2,0.1
				c0.1,0,0.3,0,0.4-0.1c0.1-0.1,0.3-0.2,0.5-0.3c0.2-0.1,0.3-0.3,0.5-0.5c0.1-0.2,0.3-0.3,0.4-0.5l0.3,0.2
				c-0.1,0.2-0.3,0.4-0.5,0.7c-0.2,0.2-0.4,0.5-0.7,0.7c-0.2,0.2-0.5,0.4-0.8,0.5s-0.5,0.2-0.8,0.2c-0.1,0-0.2,0-0.3,0
				c-0.1,0-0.2-0.1-0.3-0.1c-0.1-0.1-0.2-0.2-0.2-0.3c-0.1-0.1-0.1-0.3-0.1-0.6c0-0.1,0-0.2,0-0.3c0-0.1,0-0.3,0.1-0.5
				c0-0.2,0.1-0.5,0.2-0.8c0.1-0.3,0.2-0.8,0.4-1.3c0.1-0.2,0.1-0.4,0.2-0.5c0.1-0.2,0.1-0.3,0.2-0.5c0.1-0.4,0.3-0.8,0.4-1.1
				c0.1-0.3,0.1-0.5,0.2-0.6c0-0.1,0.1-0.2,0.1-0.3c0,0,0-0.1,0-0.1c0-0.2-0.1-0.3-0.2-0.3c-0.2,0-0.4,0-0.5,0.1
				c-0.2,0.1-0.3,0.2-0.5,0.4s-0.3,0.3-0.4,0.5c-0.1,0.2-0.3,0.3-0.4,0.5l-0.4-0.2c0.2-0.2,0.3-0.5,0.6-0.7s0.4-0.5,0.7-0.7
				s0.5-0.4,0.8-0.5c0.3-0.1,0.5-0.2,0.8-0.2c0.3,0,0.6,0.1,0.7,0.3c0.1,0.2,0.2,0.4,0.2,0.7c0,0.2,0,0.5-0.1,0.7
				c-0.1,0.3-0.2,0.5-0.3,0.9c-0.2,0.5-0.3,1-0.5,1.5C145.7,57.6,145.5,58.1,145.4,58.6z M145.7,50.7c0-0.3,0.1-0.5,0.3-0.8
				c0.2-0.2,0.4-0.3,0.7-0.3c0.3,0,0.4,0.1,0.5,0.2c0.1,0.1,0.2,0.3,0.2,0.5c0,0.3-0.1,0.5-0.3,0.7c-0.2,0.2-0.4,0.3-0.7,0.3
				c-0.2,0-0.3-0.1-0.4-0.2C145.7,51.1,145.7,50.9,145.7,50.7z"/>
			<path class="st1" d="M148.8,55.2c0-0.2,0.1-0.5,0.2-0.7c0.1-0.2,0.3-0.5,0.5-0.7c0.2-0.2,0.5-0.4,0.8-0.5s0.7-0.2,1.2-0.2
				c0.4,0,0.7,0,0.9,0.1c0.3,0.1,0.5,0.2,0.6,0.3c0.2,0.1,0.3,0.3,0.4,0.4s0.1,0.3,0.1,0.4c0,0.2-0.1,0.3-0.2,0.4
				c-0.1,0.1-0.2,0.2-0.4,0.2c-0.1,0-0.1,0-0.2,0c-0.1,0-0.1,0-0.2-0.1s-0.1-0.1-0.2-0.2s-0.1-0.2-0.1-0.4c0,0,0-0.1,0-0.1
				s0-0.1,0-0.1c0,0,0-0.1-0.1-0.2c0-0.1-0.1-0.1-0.1-0.2c-0.1-0.1-0.2-0.1-0.3-0.1c-0.1,0-0.3-0.1-0.5-0.1c-0.2,0-0.4,0-0.6,0.1
				c-0.2,0.1-0.3,0.2-0.4,0.3c-0.1,0.1-0.2,0.2-0.3,0.3c-0.1,0.1-0.1,0.2-0.1,0.4c0,0.2,0,0.4,0.1,0.5c0.1,0.1,0.1,0.3,0.3,0.4
				c0.1,0.1,0.3,0.3,0.5,0.5c0.2,0.2,0.4,0.4,0.7,0.7c0.2,0.2,0.3,0.3,0.4,0.5c0.1,0.1,0.3,0.3,0.4,0.4c0.1,0.2,0.2,0.3,0.2,0.5
				c0.1,0.2,0.1,0.4,0.1,0.7c0,0.3-0.1,0.5-0.2,0.8c-0.1,0.3-0.3,0.5-0.6,0.7s-0.6,0.4-0.9,0.5s-0.7,0.2-1.2,0.2
				c-0.4,0-0.7-0.1-1-0.2c-0.3-0.1-0.5-0.2-0.7-0.4c-0.2-0.2-0.3-0.3-0.4-0.5c-0.1-0.2-0.1-0.4-0.1-0.6c0-0.2,0.1-0.4,0.2-0.5
				s0.3-0.2,0.5-0.2c0.2,0,0.4,0.1,0.5,0.2c0.1,0.1,0.2,0.3,0.2,0.4c0,0.1,0,0.2,0,0.2s0,0.1-0.1,0.2c0,0-0.1,0.1-0.1,0.2
				c0,0.1,0,0.1,0,0.2c0,0.1,0.1,0.3,0.4,0.4c0.3,0.1,0.6,0.2,1,0.2c0.3,0,0.5,0,0.7-0.1c0.2-0.1,0.4-0.2,0.5-0.4s0.2-0.3,0.3-0.5
				c0.1-0.2,0.1-0.3,0.1-0.5c0-0.3-0.1-0.5-0.2-0.7s-0.3-0.4-0.4-0.6c-0.2-0.2-0.4-0.4-0.5-0.5c-0.2-0.2-0.4-0.4-0.6-0.5
				c-0.2-0.2-0.4-0.5-0.6-0.7C148.9,55.9,148.8,55.6,148.8,55.2z"/>
			<path class="st1" d="M156.5,55.6c-0.1,0.3-0.2,0.5-0.2,0.8c-0.1,0.2-0.1,0.4-0.2,0.6s-0.1,0.3-0.2,0.5c-0.1,0.2-0.1,0.3-0.2,0.5
				c-0.1,0.3-0.2,0.5-0.3,0.7s-0.1,0.4-0.2,0.5c0,0.1-0.1,0.3-0.1,0.4s0,0.2,0,0.3c0,0.4,0.2,0.6,0.5,0.6c0.2,0,0.5-0.1,0.7-0.3
				c0.3-0.2,0.5-0.5,0.8-0.8s0.5-0.7,0.8-1s0.5-0.8,0.7-1.1s0.4-0.7,0.5-1s0.2-0.5,0.3-0.6l0.7-2.4h1.2l-1.7,6.2
				c0,0.1-0.1,0.2-0.1,0.3c0,0.1,0,0.2,0,0.3c0,0.1,0,0.1,0.1,0.2c0.1,0,0.1,0.1,0.2,0.1c0.1,0,0.3,0,0.4-0.1
				c0.1-0.1,0.3-0.2,0.4-0.3c0.1-0.1,0.3-0.3,0.4-0.4s0.2-0.3,0.3-0.5l0.3,0.2c-0.4,0.6-0.8,1.1-1.2,1.5c-0.4,0.4-0.9,0.6-1.4,0.6
				c-0.3,0-0.5-0.1-0.6-0.3c-0.1-0.2-0.2-0.4-0.2-0.5c0-0.1,0-0.2,0-0.4s0-0.2,0.1-0.4l0.5-2c-0.4,0.6-0.7,1.1-1,1.5
				c-0.3,0.4-0.6,0.8-0.9,1.1c-0.3,0.3-0.6,0.5-0.8,0.6c-0.3,0.1-0.6,0.2-0.9,0.2c-0.4,0-0.7-0.1-0.9-0.4c-0.2-0.3-0.4-0.6-0.4-1.1
				c0-0.3,0-0.6,0.1-0.9c0.1-0.3,0.2-0.6,0.3-0.9c0.1-0.4,0.3-0.7,0.4-1.1s0.3-0.8,0.5-1.3c0.1-0.4,0.2-0.7,0.3-0.9
				c0.1-0.2,0.1-0.4,0.1-0.5c0-0.2-0.1-0.2-0.2-0.2c-0.1,0-0.2,0-0.4,0.1c-0.1,0.1-0.3,0.2-0.4,0.3s-0.3,0.3-0.4,0.5
				c-0.1,0.2-0.3,0.3-0.4,0.5l-0.3-0.2c0.1-0.2,0.3-0.5,0.5-0.7c0.2-0.2,0.4-0.5,0.6-0.7c0.2-0.2,0.5-0.4,0.7-0.5
				c0.3-0.1,0.5-0.2,0.8-0.2c0.3,0,0.5,0.1,0.6,0.2c0.1,0.1,0.2,0.3,0.2,0.5c0,0.3-0.1,0.6-0.2,1C156.6,55.1,156.5,55.4,156.5,55.6z
				"/>
			<path class="st1" d="M169.4,59.2L169.4,59.2c-0.1,0.2-0.3,0.3-0.4,0.6c-0.2,0.2-0.4,0.4-0.6,0.6c-0.2,0.2-0.5,0.4-0.8,0.6
				c-0.3,0.2-0.6,0.2-0.8,0.2c-0.2,0-0.3,0-0.5-0.1s-0.2-0.3-0.2-0.5c0-0.1,0-0.3,0.1-0.5c0-0.2,0.1-0.3,0.2-0.6l0.3-1h-0.1
				c-0.3,0.5-0.6,0.9-0.9,1.2c-0.3,0.3-0.5,0.6-0.8,0.8c-0.3,0.2-0.5,0.3-0.7,0.4c-0.2,0.1-0.5,0.1-0.7,0.1c-0.6,0-1-0.2-1.2-0.6
				c-0.3-0.4-0.4-0.9-0.4-1.5s0.1-1.3,0.4-2c0.3-0.7,0.7-1.3,1.2-1.9c0.5-0.6,1.1-1.1,1.7-1.4s1.3-0.6,2-0.6c0.2,0,0.5,0,0.6,0.1
				c0.2,0.1,0.3,0.1,0.4,0.2l0.2-0.5h1.2l-2.1,6.7c0,0.1-0.1,0.2-0.1,0.4c0,0.1,0,0.2,0,0.3c0,0.1,0.1,0.2,0.2,0.2
				c0.1,0,0.2,0,0.4-0.1c0.1-0.1,0.3-0.2,0.4-0.3c0.1-0.1,0.3-0.3,0.4-0.4c0.1-0.2,0.3-0.3,0.4-0.5L169.4,59.2z M167.9,54.2
				c0-0.2-0.1-0.3-0.2-0.5c-0.1-0.1-0.4-0.2-0.6-0.2c-0.3,0-0.6,0.1-0.9,0.3c-0.3,0.2-0.6,0.4-0.9,0.8c-0.3,0.3-0.6,0.7-0.9,1.1
				c-0.3,0.4-0.5,0.8-0.7,1.3c-0.2,0.4-0.4,0.9-0.5,1.3c-0.1,0.4-0.2,0.8-0.2,1.2c0,0.3,0,0.5,0.1,0.6c0,0.2,0.1,0.3,0.2,0.4
				c0.1,0.1,0.2,0.1,0.3,0.2c0.1,0,0.2,0,0.3,0c0.2,0,0.4-0.1,0.6-0.2c0.2-0.1,0.4-0.3,0.7-0.5c0.2-0.2,0.4-0.5,0.7-0.8
				c0.2-0.3,0.4-0.6,0.6-0.9c0.2-0.3,0.3-0.6,0.5-0.8c0.1-0.3,0.2-0.5,0.3-0.7L167.9,54.2z"/>
			<path class="st1" d="M171.5,59.6c0,0.1,0,0.2-0.1,0.3c0,0.1,0,0.2,0,0.3c0,0.1,0,0.1,0,0.2s0.1,0.1,0.2,0.1
				c0.2,0,0.5-0.1,0.8-0.4s0.5-0.6,0.7-1l0.3,0.2c0,0.1-0.1,0.2-0.3,0.4c-0.1,0.2-0.3,0.4-0.6,0.7c-0.2,0.2-0.5,0.5-0.8,0.6
				s-0.6,0.3-0.9,0.3c-0.2,0-0.4-0.1-0.6-0.2c-0.2-0.1-0.2-0.3-0.2-0.7c0-0.2,0-0.5,0.1-0.8c0.1-0.3,0.1-0.6,0.2-0.8l2-8.3
				c0-0.1,0-0.2,0.1-0.2c0-0.1,0-0.1,0-0.2c0-0.1,0-0.2-0.1-0.2c-0.1,0-0.2-0.1-0.4-0.1h-0.6l0.1-0.4c0.2,0,0.6-0.1,1.1-0.2
				c0.5-0.1,1.1-0.4,1.7-0.7L171.5,59.6z"/>
			<path class="st1" d="M187.4,56.2c-0.2,0-0.4,0.1-0.5,0.2c-0.1,0.1-0.3,0.3-0.4,0.6l0,0.1c-0.1,0.2-0.2,0.4-0.3,0.5
				c-0.1,0.2-0.2,0.4-0.4,0.6s-0.3,0.4-0.5,0.7c-0.2,0.2-0.4,0.5-0.7,0.8c0.1,0.2,0.2,0.3,0.3,0.4c0.1,0.1,0.2,0.2,0.4,0.2
				s0.2,0.1,0.3,0.1c0.1,0,0.2,0,0.3,0c0.1,0,0.3,0,0.6-0.1c0.3-0.1,0.5-0.2,0.8-0.5l0.2,0.3c-0.6,0.4-1.1,0.7-1.5,0.9
				c-0.4,0.1-0.7,0.2-1,0.2c-0.3,0-0.6-0.1-0.8-0.2c-0.3-0.1-0.5-0.3-0.7-0.6c-0.1,0.1-0.3,0.2-0.5,0.3c-0.2,0.1-0.4,0.2-0.7,0.3
				c-0.3,0.1-0.5,0.1-0.8,0.2c-0.3,0.1-0.7,0.1-1,0.1c-1,0-1.8-0.2-2.4-0.7s-0.9-1.1-0.9-2c0-0.5,0.1-0.9,0.3-1.2
				c0.2-0.4,0.4-0.7,0.7-1c0.3-0.3,0.7-0.6,1.1-0.8s0.9-0.5,1.4-0.7c-0.2-0.4-0.3-0.8-0.4-1.1s-0.1-0.6-0.1-0.9
				c0-0.4,0.1-0.7,0.2-1.1s0.3-0.6,0.6-0.9c0.2-0.3,0.5-0.4,0.9-0.6c0.4-0.1,0.8-0.2,1.2-0.2c0.3,0,0.6,0,0.9,0.1
				c0.2,0.1,0.4,0.2,0.5,0.4c0.1,0.2,0.2,0.3,0.3,0.5s0.1,0.4,0.1,0.6c0,0.3-0.1,0.7-0.2,0.9c-0.1,0.3-0.3,0.5-0.6,0.8
				s-0.5,0.5-0.9,0.7c-0.3,0.2-0.7,0.4-1,0.5l2.4,4.6c0.1-0.1,0.3-0.2,0.4-0.4s0.3-0.4,0.5-0.6c0.2-0.2,0.3-0.5,0.4-0.8
				c0.1-0.3,0.2-0.5,0.2-0.7c0-0.1-0.1-0.3-0.2-0.4c-0.1-0.1-0.3-0.1-0.6-0.1h-0.5l0.1-0.5h3.6l-0.1,0.5H187.4z M180.6,55.2
				c-0.2,0.1-0.4,0.2-0.6,0.4c-0.2,0.2-0.5,0.4-0.7,0.6c-0.2,0.2-0.4,0.5-0.6,0.9c-0.2,0.3-0.2,0.7-0.2,1.2c0,0.3,0.1,0.7,0.2,1
				c0.1,0.3,0.3,0.5,0.5,0.8c0.2,0.2,0.5,0.4,0.8,0.5c0.3,0.1,0.7,0.2,1.1,0.2c0.4,0,0.8-0.1,1.1-0.2c0.3-0.1,0.6-0.3,0.8-0.4
				L180.6,55.2z M183.7,51.6c0-0.4-0.1-0.6-0.3-0.8s-0.4-0.2-0.7-0.2c-0.5,0-0.9,0.2-1.2,0.6c-0.3,0.4-0.5,0.9-0.5,1.5
				c0,0.3,0,0.6,0.1,0.8s0.2,0.5,0.4,0.8c0.7-0.2,1.2-0.6,1.5-1.1S183.7,52.2,183.7,51.6z"/>
			<path class="st1" d="M195.6,53.6l-0.4,0.2c-0.2,0.1-0.4,0.2-0.6,0.2s-0.4,0.1-0.6,0.1c-0.2,0-0.4,0-0.7-0.1s-0.5-0.1-0.6-0.1
				c-0.1,0-0.2,0-0.4,0.1s-0.3,0.2-0.5,0.5l-0.3-0.2c0.3-0.5,0.6-0.9,0.9-1.1c0.3-0.2,0.6-0.3,0.9-0.3c0.1,0,0.3,0,0.4,0
				c0.1,0,0.3,0.1,0.4,0.1c0.1,0,0.3,0.1,0.5,0.1c0.2,0,0.3,0,0.6,0c0.2,0,0.4,0,0.6-0.1c0.2-0.1,0.3-0.1,0.4-0.2l0.2,0.3
				c-0.6,0.5-1.2,1.1-1.6,1.7c-0.2,0.3-0.4,0.5-0.6,0.8c-0.2,0.3-0.4,0.6-0.5,0.9c-0.1,0.3-0.3,0.6-0.4,1c-0.1,0.3-0.1,0.7-0.1,1
				c0,0.2,0,0.5,0.1,0.7s0.2,0.4,0.3,0.6c0.1,0.2,0.3,0.3,0.6,0.4s0.5,0.2,0.8,0.2c0.2,0,0.4,0,0.7-0.1c0.2-0.1,0.5-0.2,0.7-0.4
				c-0.1-0.2-0.2-0.5-0.2-0.7c0-0.2-0.1-0.5-0.1-0.8c0-0.3,0.1-0.7,0.2-1.1c0.1-0.4,0.2-0.8,0.4-1.2c0.2-0.4,0.4-0.8,0.6-1.1
				s0.5-0.7,0.7-0.9c0.2-0.3,0.5-0.5,0.7-0.6c0.2-0.2,0.5-0.2,0.7-0.2c0.1,0,0.3,0,0.4,0.1c0.1,0.1,0.1,0.1,0.2,0.2
				c0,0.1,0.1,0.2,0.1,0.3c0,0.1,0,0.2,0,0.2c0,0.3-0.1,0.7-0.2,1.2c-0.1,0.4-0.3,0.9-0.5,1.4c-0.2,0.5-0.5,1-0.8,1.5
				c-0.3,0.5-0.7,1-1.1,1.4c0.1,0.3,0.2,0.6,0.5,0.8c0.2,0.2,0.5,0.3,0.9,0.3c0.3,0,0.6-0.1,0.9-0.2c0.3-0.1,0.6-0.3,0.9-0.6
				c0.3-0.2,0.5-0.5,0.8-0.9c0.2-0.3,0.5-0.7,0.6-1c0.2-0.3,0.3-0.7,0.4-1c0.1-0.3,0.2-0.7,0.2-1c0-0.2,0-0.5-0.1-0.7
				s-0.2-0.4-0.4-0.7c-0.1-0.1-0.2-0.3-0.3-0.4c-0.1-0.1-0.2-0.3-0.2-0.4s0-0.3,0.1-0.4c0.1-0.1,0.2-0.2,0.4-0.2
				c0.1,0,0.2,0,0.4,0.1c0.1,0.1,0.2,0.2,0.3,0.3s0.2,0.4,0.3,0.6c0.1,0.3,0.1,0.6,0.1,1s-0.1,0.8-0.2,1.3c-0.1,0.5-0.3,0.9-0.5,1.4
				c-0.2,0.4-0.4,0.9-0.7,1.3s-0.6,0.8-1,1.1s-0.7,0.6-1.2,0.8c-0.4,0.2-0.8,0.3-1.3,0.3c-0.4,0-0.8-0.1-1.1-0.2s-0.5-0.3-0.7-0.6
				c-0.3,0.2-0.6,0.4-1,0.6c-0.4,0.1-0.7,0.2-1.1,0.2c-0.3,0-0.7-0.1-1-0.2c-0.3-0.1-0.6-0.3-0.8-0.5c-0.2-0.2-0.4-0.5-0.5-0.8
				c-0.1-0.3-0.2-0.6-0.2-1c0-0.4,0.1-0.9,0.2-1.2s0.3-0.7,0.6-1.1c0.2-0.3,0.5-0.6,0.8-0.9s0.5-0.5,0.8-0.7
				c0.3-0.2,0.6-0.5,0.8-0.7c0.1-0.1,0.2-0.1,0.3-0.2C195.4,53.8,195.5,53.7,195.6,53.6L195.6,53.6z M197.2,59.1
				c0.4-0.4,0.7-0.8,1-1.3c0.3-0.5,0.5-1,0.7-1.4c0.2-0.5,0.3-0.9,0.4-1.3c0.1-0.4,0.2-0.7,0.2-1c0-0.2,0-0.3,0-0.4
				c0-0.1-0.1-0.1-0.2-0.1c-0.2,0-0.4,0.1-0.6,0.4c-0.2,0.3-0.5,0.6-0.7,1.1c-0.2,0.4-0.4,1-0.6,1.5c-0.2,0.6-0.2,1.2-0.2,1.8
				c0,0.1,0,0.3,0,0.4C197.1,58.9,197.2,59,197.2,59.1z"/>
			<path class="st1" d="M204.8,57.6c0,0,0,0.1-0.1,0.2c0,0.1-0.1,0.2-0.1,0.3c0,0.1-0.1,0.3-0.1,0.4c0,0.2,0,0.3,0,0.5
				c0,0.4,0.1,0.8,0.4,1.1c0.3,0.3,0.6,0.4,1.1,0.4c0.6,0,1.1-0.2,1.6-0.6c0.5-0.4,1-0.9,1.4-1.6l0.3,0.2c-0.4,0.6-0.7,1.1-1,1.4
				c-0.3,0.3-0.7,0.6-1,0.8c-0.3,0.2-0.6,0.3-0.9,0.3c-0.3,0.1-0.5,0.1-0.8,0.1c-0.3,0-0.6-0.1-0.9-0.2c-0.3-0.1-0.5-0.3-0.7-0.5
				c-0.2-0.2-0.4-0.5-0.5-0.9c-0.1-0.3-0.2-0.7-0.2-1.2c0-0.6,0.1-1.2,0.4-1.9s0.7-1.2,1.1-1.7s1-0.9,1.6-1.2
				c0.6-0.3,1.2-0.5,1.8-0.5c0.6,0,1.1,0.2,1.3,0.5c0.3,0.3,0.4,0.7,0.4,1c0,0.5-0.2,0.9-0.5,1.3c-0.4,0.3-0.8,0.6-1.3,0.8
				c-0.5,0.2-1.1,0.4-1.7,0.5C205.8,57.4,205.3,57.5,204.8,57.6z M205,57.2c0.4,0,0.9-0.1,1.3-0.3c0.5-0.1,0.9-0.3,1.3-0.6
				c0.4-0.2,0.7-0.5,0.9-0.8c0.2-0.3,0.4-0.6,0.4-1c0-0.3-0.1-0.6-0.2-0.7c-0.2-0.2-0.4-0.2-0.6-0.2c-0.3,0-0.5,0.1-0.8,0.3
				c-0.3,0.2-0.6,0.4-0.8,0.8c-0.3,0.3-0.5,0.7-0.8,1.1C205.4,56.2,205.2,56.7,205,57.2z"/>
			<path class="st1" d="M212.3,55.5c0.5-0.9,1.1-1.5,1.7-1.9c0.6-0.4,1.1-0.6,1.6-0.6c0.3,0,0.6,0.1,0.8,0.2
				c0.2,0.1,0.5,0.3,0.6,0.5c0.2,0.2,0.3,0.5,0.4,0.8c0.1,0.3,0.1,0.6,0.1,0.9c0,0.6-0.1,1.2-0.4,1.9c-0.3,0.6-0.6,1.2-1,1.7
				c-0.2,0.3-0.5,0.5-0.8,0.8c-0.3,0.2-0.6,0.5-0.9,0.6c-0.3,0.2-0.6,0.3-0.9,0.4s-0.6,0.2-0.9,0.2c-0.8,0-1.4-0.2-1.8-0.6
				c-0.4-0.4-0.6-1-0.6-1.8c0-0.1,0-0.3,0.1-0.5c0-0.3,0.1-0.6,0.2-1.1l1.7-6.6c0-0.1,0-0.1,0-0.2c0-0.1,0-0.1,0-0.2
				c0-0.1-0.1-0.2-0.2-0.3c-0.1,0-0.3-0.1-0.5-0.1h-0.4v-0.4c0.2,0,0.6-0.1,1.1-0.2c0.5-0.1,1-0.4,1.7-0.7L212.3,55.5z M211.5,59.1
				c0,0.2,0,0.4,0,0.6c0,0.2,0.1,0.4,0.2,0.5c0.1,0.1,0.2,0.3,0.4,0.4c0.2,0.1,0.4,0.1,0.6,0.1c0.5,0,0.9-0.2,1.4-0.6
				c0.4-0.4,0.8-0.9,1.2-1.4c0.3-0.6,0.6-1.2,0.8-1.8c0.2-0.6,0.3-1.2,0.3-1.7c0-0.5-0.1-0.9-0.3-1.1c-0.2-0.2-0.5-0.3-0.8-0.3
				c-0.3,0-0.6,0.1-0.9,0.3c-0.3,0.2-0.6,0.4-0.9,0.7c-0.3,0.3-0.5,0.6-0.8,1c-0.2,0.4-0.4,0.8-0.6,1.2s-0.3,0.8-0.4,1.2
				S211.5,58.8,211.5,59.1z"/>
			<path class="st1" d="M228.2,50.1c0-0.1,0-0.2-0.1-0.2c-0.1,0-0.2-0.1-0.4-0.1H227l0.1-0.4c0.2,0,0.6-0.1,1.1-0.2
				c0.5-0.1,1.1-0.4,1.7-0.7l-3.1,11c0,0.1,0,0.2-0.1,0.3s0,0.2,0,0.3c0,0.2,0.1,0.2,0.2,0.2c0.1,0,0.2,0,0.4-0.1
				c0.1-0.1,0.3-0.2,0.4-0.3c0.1-0.1,0.3-0.3,0.4-0.4c0.1-0.2,0.2-0.3,0.4-0.5l0.3,0.2c-0.1,0.2-0.3,0.4-0.5,0.7s-0.4,0.5-0.6,0.7
				c-0.2,0.2-0.4,0.4-0.7,0.5c-0.2,0.1-0.5,0.2-0.7,0.2c-0.2,0-0.4-0.1-0.5-0.2c-0.2-0.1-0.2-0.3-0.2-0.6c0-0.1,0-0.4,0.1-0.8
				l0.2-0.6c-0.5,0.8-1,1.3-1.4,1.7c-0.4,0.3-0.9,0.5-1.3,0.5c-0.3,0-0.6-0.1-0.9-0.2c-0.3-0.1-0.5-0.3-0.7-0.6
				c-0.2-0.2-0.3-0.5-0.4-0.8c-0.1-0.3-0.1-0.6-0.1-1c0-0.6,0.1-1.3,0.4-1.9c0.2-0.7,0.6-1.3,1-1.8s0.9-1,1.5-1.3
				c0.6-0.3,1.2-0.5,1.8-0.5c0.4,0,0.7,0.1,1,0.2c0.3,0.1,0.5,0.2,0.7,0.3l0.9-3.1c0-0.1,0-0.2,0.1-0.2
				C228.2,50.2,228.2,50.2,228.2,50.1z M227,54.5c-0.1-0.3-0.3-0.5-0.5-0.7c-0.2-0.2-0.6-0.3-0.9-0.3c-0.3,0-0.6,0.1-0.9,0.3
				s-0.6,0.4-0.8,0.7c-0.2,0.3-0.5,0.6-0.7,1c-0.2,0.4-0.4,0.8-0.5,1.2c-0.2,0.4-0.3,0.8-0.4,1.2s-0.1,0.8-0.1,1.1
				c0,0.3,0,0.6,0.1,0.8c0.1,0.2,0.2,0.4,0.3,0.5c0.1,0.1,0.2,0.2,0.4,0.3c0.1,0.1,0.3,0.1,0.4,0.1c0.2,0,0.4-0.1,0.6-0.2
				c0.2-0.1,0.4-0.3,0.7-0.6s0.4-0.5,0.6-0.8s0.4-0.6,0.5-0.9c0.2-0.3,0.3-0.6,0.4-0.8c0.1-0.3,0.2-0.5,0.2-0.7L227,54.5z"/>
			<path class="st1" d="M230.5,57.6c0,0,0,0.1-0.1,0.2c0,0.1-0.1,0.2-0.1,0.3c0,0.1-0.1,0.3-0.1,0.4c0,0.2,0,0.3,0,0.5
				c0,0.4,0.1,0.8,0.4,1.1c0.3,0.3,0.6,0.4,1.1,0.4c0.6,0,1.1-0.2,1.6-0.6c0.5-0.4,1-0.9,1.4-1.6l0.3,0.2c-0.4,0.6-0.7,1.1-1,1.4
				c-0.3,0.3-0.7,0.6-1,0.8c-0.3,0.2-0.6,0.3-0.9,0.3c-0.3,0.1-0.5,0.1-0.8,0.1c-0.3,0-0.6-0.1-0.9-0.2c-0.3-0.1-0.5-0.3-0.7-0.5
				c-0.2-0.2-0.4-0.5-0.5-0.9s-0.2-0.7-0.2-1.2c0-0.6,0.1-1.2,0.4-1.9s0.7-1.2,1.1-1.7s1-0.9,1.6-1.2s1.2-0.5,1.8-0.5
				c0.6,0,1.1,0.2,1.3,0.5c0.3,0.3,0.4,0.7,0.4,1c0,0.5-0.2,0.9-0.5,1.3c-0.4,0.3-0.8,0.6-1.3,0.8c-0.5,0.2-1.1,0.4-1.7,0.5
				C231.5,57.4,231,57.5,230.5,57.6z M230.7,57.2c0.4,0,0.9-0.1,1.3-0.3c0.5-0.1,0.9-0.3,1.3-0.6c0.4-0.2,0.7-0.5,0.9-0.8
				c0.2-0.3,0.4-0.6,0.4-1c0-0.3-0.1-0.6-0.2-0.7c-0.2-0.2-0.4-0.2-0.6-0.2c-0.3,0-0.5,0.1-0.8,0.3c-0.3,0.2-0.6,0.4-0.8,0.8
				c-0.3,0.3-0.5,0.7-0.8,1.1C231.1,56.2,230.9,56.7,230.7,57.2z"/>
			<path class="st1" d="M236.9,55.2c0-0.2,0-0.5,0.2-0.7c0.1-0.2,0.3-0.5,0.5-0.7c0.2-0.2,0.5-0.4,0.8-0.5c0.3-0.1,0.7-0.2,1.2-0.2
				c0.4,0,0.7,0,0.9,0.1c0.3,0.1,0.5,0.2,0.6,0.3c0.2,0.1,0.3,0.3,0.4,0.4s0.1,0.3,0.1,0.4c0,0.2-0.1,0.3-0.2,0.4
				c-0.1,0.1-0.2,0.2-0.4,0.2c-0.1,0-0.1,0-0.2,0c-0.1,0-0.1,0-0.2-0.1s-0.1-0.1-0.2-0.2s-0.1-0.2-0.1-0.4c0,0,0-0.1,0-0.1
				s0-0.1,0-0.1c0,0,0-0.1-0.1-0.2c0-0.1-0.1-0.1-0.1-0.2c-0.1-0.1-0.2-0.1-0.3-0.1c-0.1,0-0.3-0.1-0.5-0.1c-0.2,0-0.4,0-0.6,0.1
				c-0.2,0.1-0.3,0.2-0.4,0.3c-0.1,0.1-0.2,0.2-0.3,0.3c-0.1,0.1-0.1,0.2-0.1,0.4c0,0.2,0,0.4,0.1,0.5c0.1,0.1,0.2,0.3,0.3,0.4
				c0.1,0.1,0.3,0.3,0.5,0.5c0.2,0.2,0.4,0.4,0.7,0.7c0.2,0.2,0.3,0.3,0.4,0.5c0.1,0.1,0.3,0.3,0.4,0.4s0.2,0.3,0.2,0.5
				c0.1,0.2,0.1,0.4,0.1,0.7c0,0.3-0.1,0.5-0.2,0.8c-0.1,0.3-0.3,0.5-0.6,0.7s-0.6,0.4-0.9,0.5s-0.7,0.2-1.2,0.2
				c-0.4,0-0.7-0.1-1-0.2c-0.3-0.1-0.5-0.2-0.7-0.4c-0.2-0.2-0.3-0.3-0.4-0.5c-0.1-0.2-0.1-0.4-0.1-0.6c0-0.2,0.1-0.4,0.2-0.5
				c0.1-0.1,0.3-0.2,0.5-0.2c0.2,0,0.4,0.1,0.5,0.2c0.1,0.1,0.2,0.3,0.2,0.4c0,0.1,0,0.2,0,0.2s0,0.1-0.1,0.2c0,0-0.1,0.1-0.1,0.2
				c0,0.1,0,0.1,0,0.2c0,0.1,0.1,0.3,0.4,0.4c0.3,0.1,0.6,0.2,1,0.2c0.3,0,0.5,0,0.7-0.1c0.2-0.1,0.4-0.2,0.5-0.4
				c0.1-0.1,0.2-0.3,0.3-0.5s0.1-0.3,0.1-0.5c0-0.3-0.1-0.5-0.2-0.7s-0.3-0.4-0.4-0.6c-0.2-0.2-0.4-0.4-0.5-0.5
				c-0.2-0.2-0.4-0.4-0.6-0.5c-0.2-0.2-0.4-0.5-0.6-0.7C237,55.9,236.9,55.6,236.9,55.2z"/>
			<path class="st1" d="M243.7,58.6c-0.1,0.3-0.2,0.5-0.2,0.8c0,0.3-0.1,0.5-0.1,0.6c0,0.1,0,0.3,0.1,0.3c0,0.1,0.1,0.1,0.2,0.1
				c0.1,0,0.3,0,0.4-0.1c0.1-0.1,0.3-0.2,0.5-0.3c0.2-0.1,0.3-0.3,0.5-0.5c0.1-0.2,0.3-0.3,0.4-0.5l0.3,0.2
				c-0.1,0.2-0.3,0.4-0.5,0.7c-0.2,0.2-0.4,0.5-0.7,0.7c-0.2,0.2-0.5,0.4-0.8,0.5s-0.5,0.2-0.8,0.2c-0.1,0-0.2,0-0.3,0
				c-0.1,0-0.2-0.1-0.3-0.1c-0.1-0.1-0.2-0.2-0.2-0.3s-0.1-0.3-0.1-0.6c0-0.1,0-0.2,0-0.3c0-0.1,0-0.3,0.1-0.5
				c0-0.2,0.1-0.5,0.2-0.8s0.2-0.8,0.4-1.3c0.1-0.2,0.1-0.4,0.2-0.5c0.1-0.2,0.1-0.3,0.2-0.5c0.1-0.4,0.3-0.8,0.4-1.1
				c0.1-0.3,0.1-0.5,0.2-0.6s0.1-0.2,0.1-0.3c0,0,0-0.1,0-0.1c0-0.2-0.1-0.3-0.2-0.3c-0.2,0-0.4,0-0.5,0.1c-0.2,0.1-0.3,0.2-0.5,0.4
				s-0.3,0.3-0.4,0.5c-0.1,0.2-0.3,0.3-0.4,0.5l-0.4-0.2c0.2-0.2,0.3-0.5,0.6-0.7s0.4-0.5,0.7-0.7c0.3-0.2,0.5-0.4,0.8-0.5
				c0.3-0.1,0.5-0.2,0.8-0.2c0.3,0,0.6,0.1,0.7,0.3c0.1,0.2,0.2,0.4,0.2,0.7c0,0.2,0,0.5-0.1,0.7c-0.1,0.3-0.2,0.5-0.3,0.9
				c-0.2,0.5-0.3,1-0.5,1.5C244,57.6,243.9,58.1,243.7,58.6z M244,50.7c0-0.3,0.1-0.5,0.3-0.8c0.2-0.2,0.4-0.3,0.7-0.3
				c0.3,0,0.4,0.1,0.5,0.2c0.1,0.1,0.2,0.3,0.2,0.5c0,0.3-0.1,0.5-0.3,0.7s-0.4,0.3-0.7,0.3c-0.2,0-0.3-0.1-0.4-0.2
				C244,51.1,244,50.9,244,50.7z"/>
			<path class="st1" d="M254,53.3l-1.7,5.9c-0.2,0.8-0.5,1.6-0.9,2.3s-0.7,1.2-1.1,1.7s-0.9,0.8-1.4,1.1c-0.5,0.3-1,0.4-1.6,0.4
				c-0.4,0-0.7,0-1-0.1c-0.3-0.1-0.5-0.2-0.6-0.3c-0.2-0.1-0.3-0.2-0.3-0.4c-0.1-0.1-0.1-0.3-0.1-0.4c0-0.2,0.1-0.4,0.2-0.5
				c0.1-0.1,0.3-0.2,0.5-0.2c0.3,0,0.5,0.1,0.6,0.2c0.1,0.1,0.2,0.3,0.2,0.4c0,0.1,0,0.2,0,0.2c0,0.1,0,0.1,0,0.2c0,0,0,0.1,0,0.2
				c0,0.1,0,0.1,0.1,0.2c0,0,0.1,0.1,0.2,0.1c0.1,0,0.2,0.1,0.4,0.1c0.3,0,0.6-0.1,0.9-0.2c0.3-0.1,0.6-0.4,0.9-0.7
				c0.3-0.4,0.6-0.9,1-1.6s0.6-1.6,0.9-2.8c-0.3,0.5-0.6,0.8-0.8,1.1c-0.3,0.3-0.5,0.5-0.7,0.7c-0.2,0.2-0.5,0.3-0.7,0.3
				c-0.2,0.1-0.4,0.1-0.6,0.1c-0.7,0-1.2-0.2-1.5-0.7c-0.3-0.5-0.5-1.1-0.5-1.8c0-0.6,0.1-1.3,0.4-1.9c0.2-0.7,0.6-1.2,1-1.8
				c0.4-0.5,0.9-1,1.5-1.3s1.2-0.5,1.8-0.5c0.5,0,0.9,0.1,1.2,0.2s0.5,0.3,0.6,0.3l0.1-0.3H254z M252.4,54.5
				c-0.1-0.3-0.3-0.5-0.5-0.7c-0.2-0.2-0.5-0.3-0.9-0.3c-0.3,0-0.6,0.1-0.9,0.3c-0.3,0.2-0.6,0.4-0.8,0.8c-0.3,0.3-0.5,0.7-0.7,1.1
				c-0.2,0.4-0.4,0.8-0.5,1.2c-0.2,0.4-0.3,0.8-0.4,1.2c-0.1,0.4-0.1,0.8-0.1,1.1s0,0.6,0.1,0.8c0.1,0.2,0.2,0.3,0.3,0.4
				s0.2,0.2,0.4,0.2c0.1,0,0.3,0,0.4,0c0.2,0,0.4-0.1,0.6-0.2c0.2-0.1,0.4-0.3,0.7-0.6s0.4-0.5,0.6-0.8s0.4-0.6,0.6-0.9
				c0.2-0.3,0.3-0.6,0.4-0.8c0.1-0.3,0.2-0.5,0.2-0.6L252.4,54.5z"/>
			<path class="st1" d="M261.6,54.6c0,0.4-0.1,0.9-0.3,1.4c-0.2,0.5-0.4,1.1-0.7,1.7c-0.2,0.4-0.3,0.8-0.5,1.1
				c-0.1,0.3-0.2,0.5-0.3,0.7s-0.1,0.3-0.1,0.4c0,0.1,0,0.2,0,0.2c0,0.1,0,0.2,0.1,0.2c0,0,0.1,0,0.2,0c0.1,0,0.2,0,0.4-0.1
				c0.1-0.1,0.3-0.2,0.4-0.3c0.2-0.1,0.3-0.3,0.4-0.4c0.1-0.2,0.3-0.3,0.4-0.5l0.3,0.2c0,0-0.1,0.2-0.3,0.4
				c-0.2,0.2-0.4,0.4-0.6,0.7c-0.2,0.2-0.5,0.5-0.8,0.7c-0.3,0.2-0.6,0.3-1,0.3c-0.3,0-0.5-0.1-0.6-0.2c-0.1-0.2-0.1-0.3-0.1-0.6
				c0-0.1,0-0.4,0.1-0.6s0.2-0.6,0.3-1c0.1-0.3,0.2-0.6,0.4-1c0.2-0.4,0.4-0.8,0.6-1.4c0.2-0.4,0.3-0.8,0.4-1.2
				c0.1-0.4,0.2-0.6,0.2-0.8c0-0.2,0-0.4-0.1-0.5c-0.1-0.1-0.2-0.1-0.4-0.1c-0.2,0-0.4,0.1-0.7,0.3c-0.3,0.2-0.5,0.4-0.8,0.7
				c-0.3,0.3-0.5,0.6-0.8,1c-0.3,0.4-0.5,0.7-0.7,1.1c-0.2,0.4-0.4,0.7-0.6,1c-0.2,0.3-0.3,0.6-0.3,0.7l-0.7,2.4H254l1.7-6.2
				c0-0.1,0.1-0.2,0.1-0.3c0-0.1,0-0.2,0-0.3c0-0.1,0-0.2-0.1-0.2c0,0-0.1-0.1-0.2-0.1c-0.1,0-0.3,0-0.4,0.1
				c-0.1,0.1-0.3,0.2-0.4,0.3c-0.1,0.1-0.3,0.3-0.4,0.5c-0.1,0.2-0.3,0.3-0.4,0.5l-0.3-0.2c0.1-0.2,0.3-0.4,0.5-0.7
				c0.2-0.2,0.4-0.5,0.6-0.7c0.2-0.2,0.5-0.4,0.7-0.5c0.3-0.1,0.5-0.2,0.8-0.2c0.3,0,0.5,0.1,0.6,0.2c0.1,0.2,0.2,0.4,0.2,0.6
				c0,0.1,0,0.2,0,0.4c0,0.1,0,0.2-0.1,0.3l-0.5,1.9c0.4-0.6,0.8-1.2,1.1-1.6s0.7-0.8,0.9-1.1s0.6-0.5,0.8-0.6s0.5-0.2,0.8-0.2
				c0.4,0,0.7,0.1,1,0.3C261.4,53.7,261.6,54.1,261.6,54.6z"/>
			<path class="st1" d="M263.5,57.6c0,0,0,0.1-0.1,0.2c0,0.1-0.1,0.2-0.1,0.3c0,0.1-0.1,0.3-0.1,0.4c0,0.2,0,0.3,0,0.5
				c0,0.4,0.1,0.8,0.4,1.1c0.3,0.3,0.6,0.4,1.1,0.4c0.6,0,1.1-0.2,1.6-0.6c0.5-0.4,1-0.9,1.4-1.6l0.3,0.2c-0.4,0.6-0.7,1.1-1,1.4
				c-0.3,0.3-0.7,0.6-1,0.8s-0.6,0.3-0.9,0.3c-0.3,0.1-0.5,0.1-0.8,0.1c-0.3,0-0.6-0.1-0.9-0.2s-0.5-0.3-0.7-0.5
				c-0.2-0.2-0.4-0.5-0.5-0.9c-0.1-0.3-0.2-0.7-0.2-1.2c0-0.6,0.1-1.2,0.4-1.9s0.7-1.2,1.1-1.7s1-0.9,1.6-1.2
				c0.6-0.3,1.2-0.5,1.8-0.5c0.6,0,1.1,0.2,1.3,0.5c0.3,0.3,0.4,0.7,0.4,1c0,0.5-0.2,0.9-0.5,1.3c-0.4,0.3-0.8,0.6-1.3,0.8
				c-0.5,0.2-1.1,0.4-1.7,0.5S264,57.5,263.5,57.6z M263.7,57.2c0.4,0,0.9-0.1,1.3-0.3c0.5-0.1,0.9-0.3,1.3-0.6
				c0.4-0.2,0.7-0.5,0.9-0.8c0.2-0.3,0.4-0.6,0.4-1c0-0.3-0.1-0.6-0.2-0.7s-0.4-0.2-0.6-0.2c-0.3,0-0.5,0.1-0.8,0.3
				c-0.3,0.2-0.6,0.4-0.8,0.8c-0.3,0.3-0.5,0.7-0.8,1.1S263.8,56.7,263.7,57.2z"/>
			<path class="st1" d="M268.9,61l1.8-6.2c0-0.1,0.1-0.2,0.1-0.3s0-0.2,0-0.3c0-0.1,0-0.2,0-0.2c0-0.1-0.1-0.1-0.2-0.1
				c-0.2,0-0.3,0-0.4,0.1c-0.1,0.1-0.3,0.2-0.4,0.3c-0.1,0.1-0.3,0.3-0.4,0.5s-0.2,0.3-0.4,0.5l-0.3-0.2c0.1-0.2,0.3-0.4,0.5-0.7
				s0.4-0.5,0.6-0.7s0.5-0.4,0.7-0.5c0.3-0.1,0.5-0.2,0.8-0.2c0.3,0,0.5,0.1,0.6,0.3c0.1,0.2,0.2,0.4,0.2,0.6c0,0.1,0,0.2,0,0.4
				c0,0.1-0.1,0.2-0.1,0.3l-0.7,2.3c0.2-0.3,0.3-0.6,0.5-0.8c0.2-0.3,0.3-0.5,0.5-0.8c0.2-0.3,0.3-0.5,0.5-0.8
				c0.2-0.3,0.3-0.5,0.5-0.7c0.2-0.2,0.3-0.4,0.5-0.5c0.2-0.1,0.3-0.2,0.5-0.2c0.3,0,0.5,0.1,0.6,0.2s0.2,0.3,0.2,0.5
				c0,0.2-0.1,0.4-0.2,0.5s-0.3,0.2-0.5,0.2c-0.1,0-0.1,0-0.2,0s-0.1-0.1-0.1-0.1c-0.1-0.1-0.2-0.1-0.3-0.1s-0.1,0-0.2,0
				c-0.1,0-0.2,0.1-0.4,0.3c-0.2,0.2-0.4,0.5-0.6,0.9c-0.2,0.3-0.4,0.6-0.6,0.9c-0.2,0.3-0.4,0.6-0.6,0.9s-0.3,0.6-0.5,0.9
				c-0.1,0.3-0.3,0.6-0.4,1l-0.5,1.9H268.9z"/>
		</g>
	</g>
</g>
</svg>
