<?xml version="1.0" encoding="UTF-8"?>
<svg width="10px" height="25px" viewBox="0 0 10 25" version="1.1" xmlns="http://www.w3.org/2000/svg" xmlns:xlink="http://www.w3.org/1999/xlink">
    <!-- Generator: Sketch 43.1 (39012) - http://www.bohemiancoding.com/sketch -->
    <title>noun_601028_cc@2x</title>
    <desc>Created with Sketch.</desc>
    <defs></defs>
    <g id="Welcome" stroke="none" stroke-width="1" fill="none" fill-rule="evenodd">
        <g id="Mobile-Portrait" transform="translate(-155.000000, -529.000000)" fill-rule="nonzero" fill="#FFFFFF">
            <g id="noun_601028_cc" transform="translate(155.000000, 529.477107)">
                <g id="Group" transform="translate(0.601826, 0.370947)">
                    <path d="M4.77672491,23.6893372 C4.66162311,23.6893372 4.5465213,23.6605617 4.46019495,23.5742354 L0.374080866,19.4881213 C0.201428159,19.3154686 0.201428159,19.0564895 0.374080866,18.8838368 C0.546733574,18.7111841 0.805712635,18.7111841 0.978365343,18.8838368 L4.77672491,22.6821964 L8.54630903,18.8550614 C8.71896173,18.6824087 8.9779408,18.6824087 9.1505935,18.8550614 C9.32324621,19.0277141 9.32324621,19.2866931 9.1505935,19.4593459 L5.06447942,23.5742354 C4.97815307,23.6605617 4.86305126,23.6893372 4.77672491,23.6893372 Z" id="Shape"></path>
                    <path d="M4.77672491,22.6462801 C4.5465213,22.6462801 4.34509314,22.444852 4.34509314,22.2146484 L4.34509314,0.538743684 C4.34509314,0.308540074 4.5465213,0.107111915 4.77672491,0.107111915 C5.00692852,0.107111915 5.20835668,0.308540074 5.20835668,0.538743684 L5.20835668,22.2146484 C5.20835668,22.444852 5.00692852,22.6462801 4.77672491,22.6462801 Z" id="Shape"></path>
                </g>
            </g>
        </g>
    </g>
</svg>