<?xml version="1.0" encoding="UTF-8"?>
<svg width="125px" height="193px" viewBox="0 0 125 193" version="1.1" xmlns="http://www.w3.org/2000/svg" xmlns:xlink="http://www.w3.org/1999/xlink">
    <!-- Generator: Sketch 41.1 (35376) - http://www.bohemiancoding.com/sketch -->
    <title>S_vector_radio_rectangle</title>
    <desc>Created with Sketch.</desc>
    <defs>
        <linearGradient x1="11.75866%" y1="5.3180127%" x2="65.9608493%" y2="98.4084685%" id="linearGradient-1">
            <stop stop-color="#07E9C8" offset="0%"></stop>
            <stop stop-color="#24B8EE" offset="50.9825415%"></stop>
            <stop stop-color="#725AF8" offset="100%"></stop>
        </linearGradient>
    </defs>
    <g id="Page-1" stroke="none" stroke-width="1" fill="none" fill-rule="evenodd">
        <g id="Desktop-HD-Copy-4" transform="translate(-731.000000, -1856.000000)" stroke="url(#linearGradient-1)">
            <g id="S_vector_radio_rectangle" transform="translate(732.000000, 1856.955144)">
                <path d="M73.071303,188.611138 C69.2414452,190.523657 65.0457091,191.479917 60.4890898,191.479917 C67.7798056,191.479917 75.1654249,190.481891 82.644699,188.476488 C90.1202269,186.474826 96.7747142,183.334255 102.612531,179.053527 C108.447227,174.779034 113.233613,169.315761 116.973562,162.667449 C120.709141,156.024748 122.580988,147.967605 122.580988,138.497268 C122.580988,131.219345 121.02944,124.481268 117.930714,118.289891 C114.827618,112.102255 110.861648,106.32106 106.031557,100.948177 C101.197719,95.5802805 95.7751051,90.4330597 89.7574706,85.5183584 C83.7392117,80.601787 77.8108614,75.6864623 71.9774147,70.7711377 C66.1389731,65.8551896 60.6258259,60.8027221 55.429232,55.6131117 C50.2313893,50.4247481 46.0818563,44.9203325 42.9831305,39.091761 C39.8806584,33.4502026 38.2860289,28.261839 38.1961203,23.5248 C38.1018411,18.7927481 39.0596178,14.6959169 41.0688259,11.2349299 C43.0724147,7.77892987 45.9451203,5.09155325 49.6838208,3.17965714 C53.4200239,1.26776104 57.6594655,0.311501299 62.4040188,0.311501299 C54.9247447,0.311501299 47.4966685,1.31451429 40.1104249,3.31492987 C32.7254299,5.32095584 26.1140239,8.46215065 20.2799528,12.7378909 C14.4421355,17.0173714 9.65512538,22.526774 5.9195467,29.2598649 C2.18022183,35.9979429 0.312120305,44.0064623 0.312120305,53.2929039 C0.312120305,60.575813 1.85929797,67.3138909 4.96239442,73.5015273 C8.05987157,79.6929039 12.0264655,85.4753455 16.860303,90.8432416 C21.6903944,96.2161247 27.1180036,101.357735 33.1362624,106.273683 C39.153897,111.189631 45.1240797,116.152332 51.0524299,121.1568 C56.9764096,126.166255 62.493303,131.219345 67.6006127,136.313579 C72.7041761,141.412177 76.9005365,146.874826 80.1834503,152.700281 C83.0979883,158.344956 84.6020848,163.534566 84.696364,168.266618 C84.7862726,173.00241 83.8284959,177.099242 81.8249071,180.556488 C79.815699,184.015605 76.9005365,186.700488 73.071303,188.611138 Z M92.4918792,13.1467636 C93.0388234,15.6988675 92.6286152,17.8838026 91.2612548,19.7015688 C89.8938944,21.5236987 88.4790822,23.0721662 87.0211888,24.3444779 C84.6498487,26.3498805 82.7817472,28.8072312 81.4143868,31.7184 C80.0470264,34.6326857 79.3627218,37.7265039 79.3627218,41.0029714 C79.3627218,47.0116987 81.4568437,52.1109195 85.6538284,56.2962701 C89.8464426,60.4866078 94.9537523,62.5780364 100.972011,62.5780364 C106.989646,62.5780364 112.092585,60.4866078 116.28957,56.2962701 C120.482184,52.1109195 122.580676,47.0116987 122.580676,41.0029714 C122.580676,35.3620364 120.892392,30.1262961 117.51957,25.3001143 C114.143625,20.4782961 109.814899,16.2449455 104.527773,12.6013091 C101.425301,10.416374 97.3219706,8.18842597 92.2184071,5.90998442 C87.1117218,3.63590649 81.0940873,2.0438026 74.1655036,1.13117922 C78.9056863,2.0438026 83.0552193,3.63590649 86.6109807,5.90998442 C90.1673665,8.18842597 92.1253766,10.5996468 92.4918792,13.1467636 Z M30.4001056,178.643844 C29.8537858,176.095481 30.2639939,173.911792 31.6313543,172.090286 C32.9993391,170.272519 34.4091563,168.722182 35.8714203,167.447377 C40.9743594,163.261403 43.5305117,157.708987 43.5305117,150.787013 C43.5305117,144.964052 41.4313949,139.911584 37.2387807,135.630857 C33.0417959,131.35574 27.9394812,129.213818 21.9212223,129.213818 C15.9035878,129.213818 10.7962782,131.35574 6.60366396,135.630857 C2.40667919,139.911584 0.31255736,144.964052 0.31255736,150.787013 C0.31255736,156.434182 1.9958467,161.711065 5.37241523,166.627636 C8.7446132,171.543584 13.0739635,175.824312 18.3654609,179.463584 C21.4641868,181.468987 25.566268,183.607169 30.6735777,185.880623 C35.7777655,188.159688 41.7954,189.751169 48.7271056,190.660052 C43.9825523,189.751169 39.8380142,188.159688 36.2810041,185.880623 C32.725867,183.607169 30.7641107,181.195948 30.4001056,178.643844 Z" id="Combined-Shape"></path>
            </g>
        </g>
    </g>
</svg>